<svg width="520" height="140" viewBox="0 0 520 140" fill="none" xmlns="http://www.w3.org/2000/svg" role="img" aria-labelledby="title desc">
  <title id="title">Ananthula Kedari wordmark</title>
  <desc id="desc">Premium maroon and gold lotus wordmark for Ananthula Kedari.</desc>
  <path d="M42 61C53 41 68 29 87 24C84 45 72 60 52 70C66 72 79 79 91 91C71 101 51 97 33 79C29 96 20 110 6 121C0 100 5 81 22 66C11 60 4 50 0 36C17 37 31 46 42 61Z" fill="#7B1430"/>
  <path d="M47 60C52 42 61 29 75 20C78 39 71 54 54 65C66 61 79 62 92 69C78 82 63 85 48 76C53 88 53 102 47 116C35 101 34 87 44 73C31 80 16 80 1 73C16 62 31 58 47 60Z" fill="#C58A31" fill-opacity="0.9"/>
  <path d="M48 34L48 111" stroke="#FFF3D8" stroke-width="4" stroke-linecap="round"/>
  <path d="M28 112H68" stroke="#FFF3D8" stroke-width="4" stroke-linecap="round"/>
  <text x="114" y="68" fill="#3D0714" font-family="Georgia, 'Times New Roman', serif" font-size="46" font-weight="700" letter-spacing="5">ANANTHULA</text>
  <text x="116" y="104" fill="#7B1430" font-family="Arial, sans-serif" font-size="18" font-weight="700" letter-spacing="6">KEDARI • SINCE 1951</text>
</svg>
